<svg xmlns="http://www.w3.org/2000/svg" xmlns:ns1="http://sozi.baierouge.fr" xmlns:svg="http://www.w3.org/2000/svg" xmlns:xlink="http://www.w3.org/1999/xlink" id="svg2424" version="1.1" viewBox="0 0 1214.7 1162"><defs id="defs2426"><filter id="filter3779" width="1.198" height="3.063" x="-.099" y="-1.031" color-interpolation-filters="sRGB"><feGaussianBlur id="feGaussianBlur3781" stdDeviation="41.744"/></filter></defs><g id="layer1" transform="translate(254.47 -39.124)"><rect id="rect3408" style="fill:green" width="0" height="10.102" x="678.82" y="143.22" ry="0"/><g id="g3294" transform="translate(168.57 -22.857)"><rect id="rect3428" ry="9.482" style="fill:#999" width="40.56" height="697.35" x="234.14" y="69.085" transform="matrix(.98152 .19134 -.10313 .99467 0 0)"/><path id="path2453" style="fill:#f60" d="m546.14 119.57c-48.957-9.5161-91.511 0.81192-101.76 23.174l-0.94047-0.18281c-0.021 0.44807-0.0486 0.90646-0.0949 1.3524-2.8931 27.822-54.331 40.83-114.83 29.071-56.177-10.92-100.5-39.383-104.22-65.673l-15.965 153.53c-0.2315 2.2264 0.30221 4.3278 1.3068 5.6672-2.7704 27.798 42.803 59.64 101.83 71.113 56.372 10.957 104.76-0.59174 111.61-25.829-0.41086-2.4695-0.51555-4.9282-0.26243-7.3624 2.893-27.822 49.467-41.81 103.97-31.216 54.501 10.594 96.401 41.78 93.508 69.601-0.15506 1.4912-0.43871 2.9262-0.83926 4.3362 2.1124 0.0978 4.0053-2.2689 4.3468-5.5525l16.061-154.46c0.11342-1.0907 0.0415-2.1432-0.18093-3.0933-0.008-0.0335-0.003-0.0744-0.0116-0.10771-2.4174-26.389-42.432-54.436-93.527-64.368z"/><path id="path3422" style="fill:#ccc" d="m529.54 264.92c-48.957-9.5161-91.511 0.81191-101.76 23.174l-0.94047-0.1828c-0.021 0.44807-0.0486 0.90646-0.0949 1.3524-2.8931 27.822-54.331 40.83-114.83 29.071-56.18-10.91-100.5-39.38-104.22-65.67l-15.965 153.53c-0.23151 2.2264 0.3022 4.3278 1.3068 5.6672-2.7704 27.798 42.803 59.64 101.83 71.113 56.372 10.957 104.76-0.59173 111.61-25.829-0.41086-2.4695-0.51555-4.9282-0.26243-7.3624 2.893-27.822 49.467-41.81 103.97-31.216 54.501 10.594 96.401 41.78 93.508 69.601-0.15506 1.4912-0.43871 2.9262-0.83926 4.3362 2.1124 0.0978 4.0053-2.2689 4.3468-5.5525l16.061-154.46c0.11342-1.0907 0.0415-2.1432-0.18093-3.0933-0.008-0.0335-0.003-0.0745-0.0116-0.10772-2.4174-26.389-42.432-54.436-93.527-64.368z"/><path id="path3424" style="fill:green" d="m513.99 407.34c-48.957-9.5161-91.511 0.81192-101.76 23.174l-0.94048-0.18281c-0.021 0.44807-0.0486 0.90646-0.0949 1.3524-2.8931 27.822-54.331 40.83-114.83 29.071-56.177-10.92-100.5-39.383-104.22-65.673l-15.965 153.53c-0.23151 2.2264 0.30221 4.3278 1.3068 5.6672-2.7704 27.798 42.803 59.64 101.83 71.113 56.372 10.957 104.76-0.59174 111.61-25.829-0.41087-2.4695-0.51556-4.9282-0.26244-7.3624 2.8931-27.822 49.467-41.81 103.97-31.216 54.501 10.594 96.401 41.78 93.508 69.601-0.15506 1.4912-0.43871 2.9262-0.83926 4.3362 2.1124 0.0978 4.0053-2.2689 4.3468-5.5525l16.061-154.46c0.11342-1.0907 0.0415-2.1432-0.18093-3.0933-0.008-0.0335-0.003-0.0744-0.0116-0.10771-2.4174-26.389-42.432-54.436-93.527-64.368z"/><path id="path3448" style="fill:#1a1a1a" d="m147.48 773.56c0 9.4842-11.533 17.173-25.759 17.173s-25.759-7.6884-25.759-17.173c0-9.4842 11.533-17.173 25.759-17.173s25.759 7.6884 25.759 17.173z" transform="matrix(.81490 .15840 -.11465 1.1025 161.08 -73.444)"/><g id="g3459" transform="matrix(.25578 .049718 -.044222 .42527 443.3 205.78)"><path id="path3450" style="fill:#1a1a1a" d="m94.954 371.52-45.988-58.783 22.883 70.636-29.207-68.682 3.8218 74.151-10.436-73.901-15.5 72.614 9.0471-74.084-33.766 66.128 27.913-69.218-49.73 55.135 44.877-59.635-62.306 40.385 58.783-45.988-70.636 22.883 68.682-29.207-74.151 3.8218 73.901-10.436-72.614-15.5 74.084 9.0471-66.128-33.766 69.218 27.913-55.135-49.73 59.635 44.877-40.385-62.306 45.988 58.783-22.883-70.636 29.207 68.682-3.8218-74.151 10.436 73.901 15.5-72.614-9.0471 74.084 33.766-66.128-27.913 69.218 49.73-55.135-44.877 59.635 62.306-40.385-58.783 45.988 70.636-22.883-68.682 29.207 74.151-3.8218-73.901 10.436 72.614 15.5-74.084-9.0471 66.128 33.766-69.218-27.913 55.135 49.73-59.635-44.877z" transform="translate(-76.772 77.782)"/><path id="path3452" style="stroke:#000;stroke-width:6.848;fill:none" d="m145.46 296.77c0 53.558-49.07 96.975-109.6 96.975-60.531 0-109.6-43.417-109.6-96.975s49.07-96.975 109.6-96.975c60.531 0 109.6 43.417 109.6 96.975z" transform="matrix(.89112 0 0 1.0019 -67.816 70.133)"/></g><path id="rect3210" style="fill:#999" d="m58.882 108.79c-0.20463-0.003-0.42083 0.00056-0.625 0.0312l-26.594 4c-3.2667 0.4911-5.1213 5.1618-4.1562 10.469l124.63 685.31c0.96509 5.3069 4.3583 9.1786 7.625 8.6875l26.625-4c3.2667-0.49111 5.1213-5.1618 4.1562-10.469l-124.63-685.31c-0.90477-4.9752-3.9618-8.678-7.0312-8.7188z"/><path id="path3212" style="fill:#f60" d="m-252.77 95.227c47.231-7.1005 89.832 5.5725 101.75 28.762l0.90731-0.1364c0.0579 0.45507 0.12309 0.92093 0.2057 1.3752 5.1536 28.339 56.692 44.188 115.05 35.414 54.196-8.1476 95.3-34.686 96.765-61.129l28.437 156.38c0.4124 2.2677 0.06378 4.3692-0.81017 5.6741 5.0312 28.308-37.022 58.205-93.964 66.765-54.385 8.1759-102.81-6.0371-111.63-31.963 0.19748-2.4807 0.0955-4.9665-0.35537-7.4458-5.1536-28.339-52.004-44.929-104.58-37.025-52.58 7.9046-91.084 37.327-85.931 65.666 0.27622 1.5189 0.6739 2.9875 1.1842 4.4369-2.064-0.0105-4.1178-2.5067-4.726-5.8514l-28.611-157.33c-0.20204-1.111-0.21911-2.1736-0.08-3.1247 0.005-0.0336-0.003-0.0753 0.002-0.10853 0.17486-26.611 37.091-52.951 86.385-60.362z"/><path id="path3214" style="fill:#e3dedb" d="m-224.39 243.36c47.231-7.1004 89.832 5.5725 101.75 28.762l0.90731-0.13641c0.0579 0.45508 0.12309 0.92094 0.2057 1.3752 5.1536 28.339 56.692 44.188 115.05 35.414 54.196-8.1476 95.3-34.686 96.765-61.129l28.439 156.38c0.4124 2.2677 0.0638 4.3692-0.81017 5.6741 5.0312 28.308-37.022 58.205-93.964 66.765-54.385 8.1759-102.81-6.0371-111.63-31.963 0.19748-2.4807 0.09552-4.9664-0.35537-7.4458-5.1536-28.339-52.004-44.929-104.58-37.025-52.58 7.9046-91.084 37.327-85.931 65.666 0.27622 1.5189 0.67389 2.9875 1.1842 4.4369-2.064-0.0105-4.1177-2.5067-4.726-5.8514l-28.611-157.33c-0.20204-1.111-0.2191-2.1736-0.08-3.1247 0.005-0.0336-0.003-0.0753 0.002-0.10854 0.17486-26.611 37.091-52.951 86.385-60.362z"/><path id="path3216" style="fill:green" d="m-197.29 388.46c47.231-7.1004 89.832 5.5725 101.75 28.762l0.90731-0.13641c0.05791 0.45508 0.12309 0.92094 0.2057 1.3752 5.1536 28.339 56.692 44.188 115.05 35.414 54.196-8.1476 95.3-34.686 96.765-61.129l28.439 156.38c0.4124 2.2677 0.0638 4.3692-0.81017 5.6741 5.0312 28.308-37.022 58.205-93.964 66.765-54.385 8.1759-102.81-6.0371-111.63-31.963 0.19748-2.4807 0.09552-4.9664-0.35537-7.4458-5.1536-28.339-52.004-44.929-104.58-37.025-52.58 7.9046-91.084 37.327-85.931 65.666 0.27622 1.5189 0.67389 2.9875 1.1842 4.4369-2.064-0.0105-4.1177-2.5067-4.726-5.8514l-28.611-157.33c-0.20204-1.111-0.2191-2.1736-0.08-3.1247 0.005-0.0336-0.003-0.0753 0.002-0.10854 0.17485-26.611 37.091-52.951 86.385-60.362z"/><path id="path3218" style="fill:#a80" d="m156.57 157.87c0 7.5315-13.568 13.637-30.305 13.637s-30.305-6.1055-30.305-13.637 13.568-13.637 30.305-13.637 30.305 6.1055 30.305 13.637z" transform="matrix(-.66824 .10046 .20423 1.123 95.33 -82.898)"/><path id="path3220" style="fill:#1a1a1a" d="m147.48 773.56c0 9.4842-11.533 17.173-25.759 17.173s-25.759-7.6884-25.759-17.173c0-9.4842 11.533-17.173 25.759-17.173s25.759 7.6884 25.759 17.173z" transform="matrix(-.78617 .11819 .20423 1.123 108.87 -80.343)"/><g id="g3222" transform="matrix(-.24676 .037097 .078775 .43317 -144.72 187.92)"><path id="path3224" style="fill:#1a1a1a" d="m94.954 371.52-45.988-58.783 22.883 70.636-29.207-68.682 3.8218 74.151-10.436-73.901-15.5 72.614 9.0471-74.084-33.766 66.128 27.913-69.218-49.73 55.135 44.877-59.635-62.306 40.385 58.783-45.988-70.636 22.883 68.682-29.207-74.151 3.8218 73.901-10.436-72.614-15.5 74.084 9.0471-66.128-33.766 69.218 27.913-55.135-49.73 59.635 44.877-40.385-62.306 45.988 58.783-22.883-70.636 29.207 68.682-3.8218-74.151 10.436 73.901 15.5-72.614-9.0471 74.084 33.766-66.128-27.913 69.218 49.73-55.135-44.877 59.635 62.306-40.385-58.783 45.988 70.636-22.883-68.682 29.207 74.151-3.8218-73.901 10.436 72.614 15.5-74.084-9.0471 66.128 33.766-69.218-27.913 55.135 49.73-59.635-44.877z" transform="translate(-76.772 77.782)"/><path id="path3226" style="stroke:#000;stroke-width:6.848;fill:none" d="m145.46 296.77c0 53.558-49.07 96.975-109.6 96.975-60.531 0-109.6-43.417-109.6-96.975s49.07-96.975 109.6-96.975c60.531 0 109.6 43.417 109.6 96.975z" transform="matrix(.89112 0 0 1.0019 -67.816 70.133)"/></g><path id="path3247" style="fill:#280b0b" d="m321.23 1009.9c0 5.5789-62.412 10.102-139.4 10.102-76.989 0-139.4-4.5226-139.4-10.102 0-5.5789 62.412-10.102 139.4-10.102 76.989 0 139.4 4.5226 139.4 10.102z" transform="matrix(1.0507 0 0 1.7 -14.274 -695.84)"/><g id="g3240" transform="translate(-458.61 42.426)"><path id="rect3232" d="m69.781 910.91c-0.60764 0-1.125 0.48609-1.125 1.0938v83.094c-1.3009 1.5304-2 3.1311-2 4.75 0 13.383 46.629 24.219 104.06 24.219 51.585 0 94.432-8.7379 102.62-20.219h0.3125c0.60764 0 1.0937-0.4861 1.0938-1.0938v-2.9062-87.844c0-0.60764-0.48611-1.0937-1.0938-1.0938h-203.88z" style="fill:#999" transform="translate(460.63 -42.426)"/><path id="path3234" style="fill:#000" d="m32.325 901.85c0 8.3684-37.99 15.152-84.853 15.152s-84.853-6.7839-84.853-15.152c0-8.3684 37.99-15.152 84.853-15.152s84.853 6.7839 84.853 15.152z" transform="matrix(1.1905 0 0 1 694.87 -34.386)"/></g><path id="rect3230" style="fill:#999" d="m104.12 816c-0.60764 0-1.0938 0.48613-1.0938 1.0938v90.719c0 0.60764 0.48611 1.0938 1.0938 1.0938h3.8125c5.6114 5.295 32.945 9.3125 65.812 9.3125 32.868 0 60.201-4.0175 65.812-9.3125h3.8125c0.60764 0 1.0938-0.48611 1.0938-1.0938v-90.719c0.02-0.6-0.47-1.09-1.07-1.09h-139.25z"/><path id="path3228" style="stroke:#000;stroke-width:6.848;fill:#000" d="m248.5 804.87c0 6.1368-34.824 11.112-77.782 11.112s-77.782-4.9749-77.782-11.112c0-6.1368 34.824-11.112 77.782-11.112s77.782 4.9749 77.782 11.112z" transform="matrix(.85994 0 0 1.0196 24.92 -1.6374)"/><path id="path3244" style="stroke:#999;stroke-width:6.848;fill:#999" d="m105.06 602.84c0 16.179-11.307 29.294-25.254 29.294s-25.254-13.116-25.254-29.294c0-16.179 11.307-29.294 25.254-29.294s25.254 13.116 25.254 29.294z" transform="matrix(.67841 0 0 .75725 117.59 344.33)"/><path id="path3252" style="fill:#a80" d="m62.629 90.192c0 4.7421-10.402 8.5863-23.234 8.5863s-23.234-3.8442-23.234-8.5863 10.402-8.5863 23.234-8.5863 23.234 3.8442 23.234 8.5863z" transform="matrix(.69565 -.086957 0 1 11.99 4.4359)"/><path id="path3254" style="fill:#a80" d="m62.629 90.192c0 4.7421-10.402 8.5863-23.234 8.5863s-23.234-3.8442-23.234-8.5863 10.402-8.5863 23.234-8.5863 23.234 3.8442 23.234 8.5863z" transform="matrix(.58696 -.086957 0 1 12.737 -6.1707)"/><path id="path3260" style="fill:#a80" d="m-166.68-19.41-80.387-20.259 57.738-59.488z" transform="matrix(.17254 -.12985 .11635 .21965 73.985 59.177)"/><g id="g3288" transform="matrix(.88625 .46320 -.46320 .88625 98.918 -52.716)"><path id="path3280" style="fill:#a80" d="m156.57 157.87c0 7.5315-13.568 13.637-30.305 13.637s-30.305-6.1055-30.305-13.637 13.568-13.637 30.305-13.637 30.305 6.1055 30.305 13.637z" transform="matrix(-.66824 .10046 .20423 1.123 257.97 -106.76)"/><path id="path3282" style="fill:#a80" d="m62.629 90.192c0 4.7421-10.402 8.5863-23.234 8.5863s-23.234-3.8442-23.234-8.5863 10.402-8.5863 23.234-8.5863 23.234 3.8442 23.234 8.5863z" transform="matrix(.69565 -.086957 0 1 174.63 -19.431)"/><path id="path3284" style="fill:#a80" d="m62.629 90.192c0 4.7421-10.402 8.5863-23.234 8.5863s-23.234-3.8442-23.234-8.5863 10.402-8.5863 23.234-8.5863 23.234 3.8442 23.234 8.5863z" transform="matrix(.58696 -.086957 0 1 175.37 -30.037)"/><path id="path3286" style="fill:#a80" d="m-166.68-19.41-80.387-20.259 57.738-59.488z" transform="matrix(.17254 -.12985 .11635 .21965 236.62 35.31)"/></g></g><path id="path3457" style="filter:url(#filter3779);fill:#4d4d4d" d="m1008.6 1103.8c0 26.825-227.06 48.571-507.14 48.571-280.09 0-507.14-21.746-507.14-48.571s227.06-48.572 507.14-48.572c280.09 0 507.14 21.746 507.14 48.572z" transform="translate(-148.57 -51.429)"/></g><metadata/></svg>